<svg width="14" height="14" viewBox="0 0 14 14" fill="none"
  xmlns="http://www.w3.org/2000/svg">
  <path d="M10.0984 1.12612C9.31525 1.02112 8.31163 1.02112 7.03325 1.02112H6.96675C5.68925 1.02112 4.68475 1.02112 3.90163 1.12612C3.09838 1.23374 2.46138 1.46037 1.96088 1.96087C1.4595 2.46137 1.23463 3.09837 1.12613 3.90162C1.02113 4.68474 1.02113 5.68837 1.02113 6.96674V7.03324C1.02113 8.31074 1.02113 9.31524 1.12613 10.0984C1.23375 10.9016 1.4595 11.5386 1.96088 12.0391C2.46138 12.5405 3.09838 12.7654 3.90163 12.8739C4.68475 12.9789 5.68838 12.9789 6.96675 12.9789H7.03325C8.31075 12.9789 9.31525 12.9789 10.0984 12.8739C10.9016 12.7662 11.5386 12.5405 12.0391 12.0391C12.5396 11.5386 12.7654 10.9016 12.8739 10.0984C12.9789 9.31524 12.9789 8.31162 12.9789 7.03324V6.96674C12.9789 5.68924 12.9789 4.68474 12.8739 3.90162C12.7663 3.09837 12.5405 2.46137 12.0391 1.96087C11.5386 1.45949 10.9016 1.23462 10.0984 1.12612ZM7.58363 4.66637V6.41637H9.33363C9.48841 6.41637 9.63686 6.47786 9.74631 6.58731C9.85576 6.69676 9.91725 6.84521 9.91725 6.99999C9.91725 7.15478 9.85576 7.30323 9.74631 7.41268C9.63686 7.52213 9.48841 7.58362 9.33363 7.58362H7.58363V9.33362C7.58363 9.48841 7.52214 9.63685 7.41269 9.7463C7.30324 9.85576 7.15479 9.91724 7 9.91724C6.84521 9.91724 6.69677 9.85576 6.58732 9.7463C6.47786 9.63685 6.41638 9.48841 6.41638 9.33362V7.58362H4.66638C4.51159 7.58362 4.36314 7.52213 4.25369 7.41268C4.14424 7.30323 4.08275 7.15478 4.08275 6.99999C4.08275 6.84521 4.14424 6.69676 4.25369 6.58731C4.36314 6.47786 4.51159 6.41637 4.66638 6.41637H6.41638V4.66637C6.41638 4.51158 6.47786 4.36313 6.58732 4.25368C6.69677 4.14423 6.84521 4.08274 7 4.08274C7.15479 4.08274 7.30324 4.14423 7.41269 4.25368C7.52214 4.36313 7.58363 4.51158 7.58363 4.66637Z" fill="currentColor"/>
</svg>
