<svg width="30" height="30" viewBox="0 0 30 30" fill="none"
  xmlns="http://www.w3.org/2000/svg">
  <rect width="30" height="30" rx="10" fill="#49CBFF"/>
  <path d="M12.8914 18.8045H17.2652V23.6091H12.8914V18.8045Z" fill="#D9A78C"/>
  <path d="M17.7954 21.6681C17.7954 21.6681 21.9543 22.2771 22.5683 22.9179C23.1022 23.4764 24.2146 28.821 24.4719 29.9942H15.0783V21.8942L17.7954 21.6681Z" fill="#2D404E"/>
  <path d="M15.0783 5.05524C17.2021 5.05524 20.5601 6.26493 20.5601 11.9329C20.5601 15.2052 19.4949 17.3492 19.0315 17.9419C18.6043 18.4872 16.2043 19.65 15.0783 19.65V5.05524Z" fill="#EAC0A7"/>
  <path d="M21.6164 13.2838C21.7104 12.3787 21.2795 11.5749 20.6544 11.4888C20.0297 11.4032 19.4477 12.0676 19.3538 12.9734C19.26 13.8785 19.6907 14.682 20.3158 14.7681C20.9397 14.8537 21.5222 14.1893 21.6164 13.2838Z" fill="#EAC0A7"/>
  <path d="M15.0783 5.05524C12.955 5.05524 9.59674 6.26493 9.59674 11.9329C9.59674 15.2052 10.6613 17.3492 11.1254 17.9419C11.5524 18.4872 13.9523 19.65 15.0783 19.65V5.05524Z" fill="#F2D7BC"/>
  <path d="M8.54045 13.2838C8.44648 12.3787 8.87741 11.5749 9.50204 11.4888C10.1269 11.4032 10.7091 12.0676 10.8031 12.9734C10.8966 13.8785 10.4659 14.682 9.84084 14.7681C9.21621 14.8537 8.63396 14.1893 8.54045 13.2838Z" fill="#F2D7BC"/>
  <path d="M12.3608 21.6681C12.3608 21.6681 8.20212 22.2771 7.58832 22.9179C7.05328 23.4764 5.94199 28.821 5.68427 29.9942H15.0778V21.8942L12.3608 21.6681Z" fill="#2D404E"/>
  <path d="M15.0778 21.8942L12.8578 20.9993L12.3105 21.5559L13.4156 24.0113L15.0778 21.8942Z" fill="white"/>
  <path d="M15.0779 21.8942L17.2982 20.9993L17.8452 21.5559L16.7406 24.0113L15.0779 21.8942Z" fill="white"/>
  <path d="M20.6787 11.6232C20.6787 11.6232 22.4764 3.414 15.0403 3.414C7.56597 3.414 9.44238 11.3968 9.44238 11.3968C9.44238 11.3968 10.4634 10.8111 10.4634 13.4305H10.6509C10.6509 13.4305 11.0129 11.6744 11.1228 10.0992C13.7517 10.0992 16.0765 9.76154 18.031 8.14062C19.1411 8.14062 19.292 9.52593 19.292 10.5861L18.8067 10.7746C18.8067 10.7746 19.2773 11.6977 19.3106 13.4305H19.6481C19.6481 13.4305 19.5979 10.5408 20.6787 11.6232Z" fill="#2F343A"/>
  <path d="M15.0783 17.5119C16.068 17.5119 16.87 17.1845 16.87 16.7806H13.2862C13.2862 17.1845 14.0884 17.5119 15.0783 17.5119Z" fill="white"/>
</svg>
