<svg width="18" height="18" viewBox="0 0 18 18" fill="none"
  xmlns="http://www.w3.org/2000/svg">
  <path d="M9 3.375C9.375 3.375 9.5625 3.5625 9.5625 3.9375V5.23828C9.5625 5.61328 9.375 5.80078 9 5.80078C8.625 5.80078 8.4375 5.61328 8.4375 5.23828V3.9375C8.4375 3.5625 8.625 3.375 9 3.375Z" fill="currentColor"/>
  <path d="M8.62295 4.92627C8.71885 4.81201 8.85621 4.74053 9.00482 4.72754C9.15342 4.71455 9.3011 4.76112 9.41537 4.85701L10.4298 5.58264C10.5441 5.67854 10.6155 5.8159 10.6285 5.96451C10.6415 6.11311 10.595 6.26079 10.4991 6.37506C10.4032 6.48934 10.2658 6.56086 10.1172 6.57388C9.96863 6.5869 9.82093 6.54036 9.70664 6.44449L8.69238 5.71887C8.63577 5.67139 8.58907 5.61323 8.55494 5.5477C8.52081 5.48217 8.49992 5.41056 8.49347 5.33695C8.48703 5.26335 8.49514 5.1892 8.51736 5.11873C8.53957 5.04827 8.57545 4.98287 8.62295 4.92627ZM4.88672 16.875H1.86328C1.66748 16.875 1.47969 16.7972 1.34124 16.6588C1.20278 16.5203 1.125 16.3325 1.125 16.1367V13.1133C1.125 12.9175 1.20278 12.7297 1.34124 12.5912C1.47969 12.4528 1.66748 12.375 1.86328 12.375H4.88672C5.08252 12.375 5.27031 12.4528 5.40876 12.5912C5.54722 12.7297 5.625 12.9175 5.625 13.1133V16.1367C5.625 16.3325 5.54722 16.5203 5.40876 16.6588C5.27031 16.7972 5.08252 16.875 4.88672 16.875ZM2.25 15.75H4.5V13.5H2.25V15.75ZM10.5117 16.875H7.48828C7.29248 16.875 7.10469 16.7972 6.96624 16.6588C6.82778 16.5203 6.75 16.3325 6.75 16.1367V13.1133C6.75 12.9175 6.82778 12.7297 6.96624 12.5912C7.10469 12.4528 7.29248 12.375 7.48828 12.375H10.5117C10.7075 12.375 10.8953 12.4528 11.0338 12.5912C11.1722 12.7297 11.25 12.9175 11.25 13.1133V16.1367C11.25 16.3325 11.1722 16.5203 11.0338 16.6588C10.8953 16.7972 10.7075 16.875 10.5117 16.875ZM7.875 15.75H10.125V13.5H7.875V15.75ZM16.1367 16.875H13.1133C12.9175 16.875 12.7297 16.7972 12.5912 16.6588C12.4528 16.5203 12.375 16.3325 12.375 16.1367V13.1133C12.375 12.9175 12.4528 12.7297 12.5912 12.5912C12.7297 12.4528 12.9175 12.375 13.1133 12.375H16.1367C16.3325 12.375 16.5203 12.4528 16.6588 12.5912C16.7972 12.7297 16.875 12.9175 16.875 13.1133V16.1367C16.875 16.3325 16.7972 16.5203 16.6588 16.6588C16.5203 16.7972 16.3325 16.875 16.1367 16.875ZM13.5 15.75H15.75V13.5H13.5V15.75Z" fill="currentColor"/>
  <path d="M8.99999 8.92968C8.22807 8.92984 7.47344 8.70106 6.83156 8.27227C6.18967 7.84349 5.68938 7.23397 5.39396 6.52081C5.09853 5.80765 5.02125 5.0229 5.17189 4.26582C5.32253 3.50873 5.69432 2.81333 6.24023 2.26758C6.97216 1.53564 7.96488 1.12444 8.99999 1.12444C10.0351 1.12444 11.0278 1.53564 11.7598 2.26758C12.4917 2.99951 12.9029 3.99223 12.9029 5.02734C12.9029 6.06245 12.4917 7.05517 11.7598 7.78711C11.3982 8.15058 10.968 8.43872 10.4943 8.63485C10.0206 8.83097 9.5127 8.93118 8.99999 8.92968ZM8.99999 2.25C7.46859 2.25 6.22265 3.49593 6.22265 5.02734C6.22265 6.55875 7.46859 7.80468 8.99999 7.80468C10.5314 7.80468 11.7773 6.55875 11.7773 5.02734C11.7773 3.49593 10.5314 2.25 8.99999 2.25Z" fill="currentColor"/>
  <path d="M3.9375 12.9683L2.8125 12.9076C2.81496 12.8635 2.87543 11.8114 3.34951 10.5662C3.63076 9.82793 3.9999 9.17034 4.4485 8.61223C5.01715 7.90383 5.71166 7.35645 6.51287 6.9852L6.98572 8.00596C5.82029 8.54596 4.95457 9.53174 4.41264 10.9359C3.99445 12.0213 3.9375 12.9589 3.9375 12.9683ZM14.0634 12.9683C14.0634 12.9589 14.0055 12.0213 13.5867 10.9359C13.0447 9.53174 12.179 8.54526 11.0136 8.00596L11.4864 6.9852C12.2876 7.35645 12.9821 7.90383 13.5508 8.61223C13.9989 9.17034 14.3685 9.82776 14.6498 10.5662C15.1244 11.8114 15.1843 12.8635 15.1868 12.9076L14.625 12.9375L14.0634 12.9683ZM8.4375 8.36719H9.5625V13.043H8.4375V8.36719Z" fill="currentColor"/>
</svg>
