<svg width="14" height="14" viewBox="0 0 14 14" fill="none"
  xmlns="http://www.w3.org/2000/svg">
  <path d="M9.82324 2.78901V2.47456C9.82324 1.86753 9.33105 1.37671 8.72266 1.37671H5.26094C4.65254 1.37671 4.16035 1.86753 4.16035 2.47456V2.78901H2.03574C1.64472 2.78901 1.32754 3.10483 1.32754 3.49585C1.32754 3.88687 1.64336 4.20269 2.03574 4.20269H2.74394V11.5787C2.74394 12.1857 3.23613 12.6765 3.84453 12.6765H10.1377C10.7461 12.6765 11.2383 12.1857 11.2383 11.5787V4.20269H11.9465C12.3375 4.20269 12.6547 3.88687 12.6547 3.49585C12.6547 3.10483 12.3375 2.78901 11.9465 2.78901H9.82324ZM6.28359 10.7939H4.86719V4.20269H6.28359V10.7939ZM9.11504 10.7939H7.7V4.20269H9.11641V10.7939H9.11504Z" fill="currentColor"/>
</svg>
