<svg width="18" height="18" viewBox="0 0 18 18" fill="none"
  xmlns="http://www.w3.org/2000/svg">
  <path d="M12.2294 6.88859H5.76608C5.46836 6.88859 5.22747 7.12946 5.22747 7.4272C5.22747 7.72494 5.46836 7.96581 5.76608 7.96581H12.2294C12.5271 7.96581 12.768 7.72492 12.768 7.4272C12.768 7.12948 12.5271 6.88859 12.2294 6.88859ZM12.2294 4.73409H5.76608C5.46836 4.73409 5.22747 4.97498 5.22747 5.2727C5.22747 5.57042 5.46836 5.81131 5.76608 5.81131H12.2294C12.2295 5.81131 12.2296 5.81131 12.2297 5.81131C12.527 5.81131 12.768 5.57031 12.768 5.27305C12.768 5.27293 12.768 5.27282 12.768 5.2727C12.768 5.27261 12.768 5.27256 12.768 5.27245C12.768 4.97514 12.5269 4.73411 12.2296 4.73411C12.2295 4.73411 12.2295 4.73411 12.2293 4.73411L12.2294 4.73409ZM14.9224 11.1265V3.65687C14.9224 3.062 14.4401 2.57964 13.8452 2.57964H4.15016C3.5553 2.57964 3.07294 3.06202 3.07294 3.65687V14.4291C3.07294 15.024 3.55532 15.5063 4.15016 15.5063H10.5036C10.5362 15.5133 10.5737 15.5173 10.6121 15.5173C10.7608 15.5173 10.8953 15.457 10.9927 15.3595L14.7698 11.5824C14.8673 11.4851 14.9277 11.3505 14.9277 11.2019C14.9277 11.1753 14.9258 11.1491 14.922 11.1235L14.9224 11.1265ZM11.1522 13.6769V11.736H13.0931L11.1522 13.6769ZM13.8452 10.6588H10.6135C10.6134 10.6588 10.6134 10.6588 10.6133 10.6588C10.316 10.6588 10.0749 10.8998 10.0749 11.1971C10.0749 11.1972 10.0749 11.1973 10.0749 11.1974L10.075 11.2003L10.0749 11.2031V14.429H4.68886C4.68875 14.429 4.68872 14.429 4.6886 14.429C4.3913 14.429 4.15025 14.1879 4.15025 13.8906C4.15025 13.8905 4.15025 13.8905 4.15025 13.8903V4.19549C4.15025 4.19539 4.15025 4.19535 4.15025 4.19523C4.15025 3.89791 4.3913 3.65688 4.6886 3.65688C4.68872 3.65688 4.68875 3.65688 4.68889 3.65688H13.3066C13.3067 3.65688 13.3068 3.65688 13.307 3.65688C13.6042 3.65688 13.8452 3.89788 13.8452 4.19516C13.8452 4.19528 13.8452 4.19539 13.8452 4.19551V10.6588H13.8452Z" fill="#0059E5"/>
</svg>
