<svg width="26" height="26" viewBox="0 0 26 26" fill="none"
  xmlns="http://www.w3.org/2000/svg">
  <path d="M23.7466 21.9613C23.1226 23.0533 21.7186 23.4347 20.6266 22.7933C19.5346 22.1693 19.1533 20.7653 19.7946 19.6733C20.4186 18.5813 21.8226 18.2 22.9146 18.8413C24.0066 19.4653 24.3706 20.852 23.7466 21.9613ZM6.22265 21.9787C5.59865 23.0707 4.19465 23.452 3.10265 22.8107C2.01065 22.1693 1.62931 20.7827 2.27065 19.6907C2.89465 18.5987 4.29865 18.2173 5.39065 18.8587C6.48265 19.4827 6.84665 20.8867 6.22265 21.9787ZM15.3746 6.10134L14.612 7.41867C13.988 8.51067 12.584 8.89201 11.492 8.25067C10.4 7.62667 10.0186 6.22267 10.66 5.13067L11.4226 3.81334C12.0466 2.72134 13.4506 2.34001 14.5426 2.98134C15.6346 3.60534 16.016 5.00934 15.3746 6.10134ZM19.8986 13.1213L16.0853 19.7253C15.4613 20.8173 14.0573 21.1987 12.9653 20.5573C11.8733 19.9333 11.492 18.5293 12.1333 17.4373L15.9466 10.8333C16.5706 9.74134 17.9746 9.36001 19.0666 10.0013C20.1586 10.6253 20.54 12.0293 19.8986 13.1213ZM11.388 12.6187L9.09998 16.588C8.47598 17.68 7.07198 18.0613 5.97998 17.42C4.88798 16.796 4.50665 15.392 5.14798 14.3L7.43598 10.3307C8.05998 9.23867 9.46398 8.85734 10.556 9.49867C11.648 10.1227 12.012 11.5267 11.388 12.6187Z" fill="#0059E5"/>
</svg>
