<svg width="18" height="18" viewBox="0 0 18 18" fill="none"
  xmlns="http://www.w3.org/2000/svg">
  <path d="M9 1.125C10.4003 1.12477 11.7467 1.66481 12.7587 2.63261C13.7707 3.60041 14.3703 4.92134 14.4326 6.32025L14.4371 6.56213C14.4371 9.37463 12.3019 11.6899 9.56363 11.9711V13.203C10.2499 13.3976 10.7899 13.9376 10.9845 14.6239L16.3125 14.625V15.75H10.9845C10.8617 16.1816 10.6015 16.5615 10.2434 16.8319C9.88529 17.1023 9.44876 17.2487 9 17.2487C8.55124 17.2487 8.11471 17.1023 7.7566 16.8319C7.39848 16.5615 7.1383 16.1816 7.0155 15.75H1.6875V14.625L7.0155 14.6239C7.21012 13.9376 7.75125 13.3976 8.4375 13.203V11.97C7.05572 11.8207 5.78353 11.1481 4.88216 10.0902C3.98078 9.03232 3.51865 7.66947 3.59063 6.28152C3.66262 4.89357 4.26328 3.58585 5.26926 2.62689C6.27524 1.66793 7.61019 1.13052 9 1.125ZM9 14.2504C8.75146 14.2504 8.5131 14.3491 8.33735 14.5249C8.16161 14.7006 8.06287 14.939 8.06287 15.1875C8.06287 15.436 8.16161 15.6744 8.33735 15.8501C8.5131 16.0259 8.75146 16.1246 9 16.1246C9.24854 16.1246 9.4869 16.0259 9.66265 15.8501C9.83839 15.6744 9.93713 15.436 9.93713 15.1875C9.93713 14.939 9.83839 14.7006 9.66265 14.5249C9.4869 14.3491 9.24854 14.2504 9 14.2504ZM10.2994 7.12575H7.70062C7.803 9.2565 8.46788 10.8754 9 10.8754C9.53212 10.8754 10.197 9.2565 10.2994 7.12575ZM6.57337 7.12575H4.725C4.82216 7.86225 5.10774 8.56122 5.55414 9.15503C6.00053 9.74884 6.59262 10.2174 7.27313 10.5154C6.87488 9.64125 6.62962 8.451 6.57562 7.12463L6.57337 7.12575ZM13.2761 7.12575H11.4266C11.3715 8.451 11.1263 9.64125 10.728 10.5142C11.4082 10.2163 12 9.74789 12.4462 9.15428C12.8924 8.56067 13.1779 7.86197 13.275 7.12575H13.2761ZM7.272 2.61225L7.10437 2.68763C6.46554 3.00084 5.91403 3.4671 5.49891 4.04493C5.08379 4.62276 4.81794 5.29424 4.725 5.99963H6.5745C6.6285 4.6755 6.87375 3.48413 7.272 2.61225ZM9 2.25C8.46788 2.25 7.803 3.86775 7.70062 5.99963H10.2994C10.197 3.86775 9.53212 2.25 9 2.25ZM10.7291 2.61L10.737 2.63138C11.1307 3.50213 11.3726 4.6845 11.4266 6.00075H13.275C13.1782 5.26428 12.8931 4.56524 12.4471 3.97124C12.0011 3.37724 11.4094 2.90838 10.7291 2.61Z" fill="currentColor"/>
</svg>
