<svg width="14" height="14" viewBox="0 0 14 14" fill="none"
  xmlns="http://www.w3.org/2000/svg">
  <path d="M5.0001 6.75009C5.0001 7.22907 5.19037 7.68844 5.52907 8.02713C5.86776 8.36582 6.32712 8.55609 6.8061 8.55609C7.28508 8.55609 7.74444 8.36582 8.08314 8.02713C8.42183 7.68844 8.6121 7.22907 8.6121 6.75009C8.6121 6.27111 8.42183 5.81175 8.08314 5.47306C7.74444 5.13437 7.28508 4.94409 6.8061 4.94409C6.32712 4.94409 5.86776 5.13437 5.52907 5.47306C5.19037 5.81175 5.0001 6.27111 5.0001 6.75009Z" fill="currentColor"/>
  <path d="M10.6421 1H3.31871C2.70381 1.00061 2.11428 1.24339 1.67954 1.67503C1.24481 2.10668 1.00041 2.6919 1 3.30223V10.6539C0.999588 11.2648 1.2436 11.8509 1.6784 12.2834C2.11319 12.7158 2.70319 12.9592 3.31871 12.96H10.6421C11.2561 12.959 11.8447 12.7166 12.2791 12.2858C12.7135 11.8551 12.9583 11.2711 12.96 10.6616V3.30997C12.9608 3.00717 12.9015 2.70719 12.7854 2.42717C12.6693 2.14715 12.4988 1.89259 12.2835 1.67804C12.0682 1.4635 11.8124 1.29319 11.5308 1.17684C11.2491 1.0605 10.9471 1.00041 10.6421 1ZM10.3715 10.3637C10.3278 10.4066 10.2759 10.4405 10.219 10.4634C10.162 10.4864 10.1011 10.498 10.0396 10.4976C9.97811 10.4971 9.91732 10.4847 9.8607 10.4609C9.80407 10.4371 9.75273 10.4025 9.70959 10.3591L8.4824 9.12088C7.88001 9.55135 7.13633 9.74075 6.39955 9.65135C5.66276 9.56195 4.98695 9.20031 4.50678 8.63848C4.0266 8.07665 3.7773 7.35589 3.80856 6.61979C3.83982 5.8837 4.14933 5.18631 4.67543 4.66658C5.20153 4.14685 5.9056 3.84293 6.64735 3.81538C7.38911 3.78783 8.11409 4.03867 8.67785 4.51792C9.24162 4.99717 9.60278 5.66964 9.68937 6.40136C9.77597 7.13308 9.58164 7.87032 9.14511 8.4662L10.3754 9.70437C10.4624 9.79205 10.5108 9.91041 10.5099 10.0335C10.509 10.1565 10.459 10.2742 10.3707 10.3606L10.3715 10.3637Z" fill="currentColor"/>
</svg>
