<svg width="18" height="18" viewBox="0 0 18 18" fill="none"
  xmlns="http://www.w3.org/2000/svg">
  <path d="M12.6345 14.25H5.3655C4.93742 14.2496 4.52697 14.0795 4.22414 13.7769C3.9213 13.4744 3.75079 13.0641 3.75 12.636V5.367C3.75 4.9384 3.92016 4.52734 4.22308 4.22414C4.526 3.92094 4.9369 3.7504 5.3655 3.75H12.6345C13.0631 3.7504 13.474 3.92094 13.7769 4.22414C14.0798 4.52734 14.25 4.9384 14.25 5.367V12.636C14.2492 13.0641 14.0787 13.4744 13.7759 13.7769C13.473 14.0795 13.0626 14.2496 12.6345 14.25ZM5.3655 4.95C5.31081 4.95 5.25666 4.9608 5.20615 4.98177C5.15564 5.00275 5.10977 5.03348 5.07117 5.07223C5.03256 5.11097 5.00199 5.15695 4.9812 5.20753C4.9604 5.25812 4.9498 5.31231 4.95 5.367V12.636C4.9504 12.7459 4.99435 12.8512 5.07223 12.9288C5.1501 13.0064 5.25556 13.05 5.3655 13.05H12.6345C12.7444 13.05 12.8499 13.0064 12.9278 12.9288C13.0057 12.8512 13.0496 12.7459 13.05 12.636V5.367C13.0502 5.31231 13.0396 5.25812 13.0188 5.20753C12.998 5.15695 12.9674 5.11097 12.9288 5.07223C12.8902 5.03348 12.8444 5.00275 12.7939 4.98177C12.7433 4.9608 12.6892 4.95 12.6345 4.95H5.3655Z" fill="currentColor"/>
  <path d="M10.29 11.25H7.70998C7.45549 11.2496 7.21154 11.1483 7.03159 10.9684C6.85164 10.7884 6.75037 10.5445 6.74998 10.29V7.7115C6.74998 7.45675 6.85107 7.21242 7.03106 7.03215C7.21105 6.85187 7.45523 6.7504 7.70998 6.75H10.29C10.5445 6.7504 10.7884 6.85167 10.9684 7.03162C11.1483 7.21157 11.2496 7.45551 11.25 7.71V10.29C11.2496 10.5445 11.1483 10.7884 10.9684 10.9684C10.7884 11.1483 10.5445 11.2496 10.29 11.25ZM7.94998 10.05H10.05V7.95H7.94998V10.05ZM5.62498 4.35C5.54618 4.35 5.46816 4.33448 5.39537 4.30433C5.32257 4.27418 5.25643 4.22998 5.20071 4.17426C5.145 4.11855 5.1008 4.05241 5.07065 3.97961C5.0405 3.90682 5.02498 3.82879 5.02498 3.75V1.95C5.02498 1.79087 5.08819 1.63826 5.20071 1.52574C5.31323 1.41321 5.46585 1.35 5.62498 1.35C5.78411 1.35 5.93672 1.41321 6.04924 1.52574C6.16176 1.63826 6.22498 1.79087 6.22498 1.95V3.75C6.22498 3.82879 6.20946 3.90682 6.1793 3.97961C6.14915 4.05241 6.10496 4.11855 6.04924 4.17426C5.99353 4.22998 5.92738 4.27418 5.85459 4.30433C5.78179 4.33448 5.70377 4.35 5.62498 4.35ZM8.99998 4.35C8.92118 4.35 8.84316 4.33448 8.77037 4.30433C8.69757 4.27418 8.63143 4.22998 8.57571 4.17426C8.52 4.11855 8.4758 4.05241 8.44565 3.97961C8.41549 3.90682 8.39998 3.82879 8.39998 3.75V1.95C8.39998 1.79087 8.46319 1.63826 8.57571 1.52574C8.68823 1.41321 8.84085 1.35 8.99998 1.35C9.15911 1.35 9.31172 1.41321 9.42424 1.52574C9.53676 1.63826 9.59998 1.79087 9.59998 1.95V3.75C9.59998 3.82879 9.58446 3.90682 9.5543 3.97961C9.52415 4.05241 9.47996 4.11855 9.42424 4.17426C9.36852 4.22998 9.30238 4.27418 9.22959 4.30433C9.15679 4.33448 9.07877 4.35 8.99998 4.35ZM12.375 4.35C12.2962 4.35 12.2182 4.33448 12.1454 4.30433C12.0726 4.27418 12.0064 4.22998 11.9507 4.17426C11.895 4.11855 11.8508 4.05241 11.8206 3.97961C11.7905 3.90682 11.775 3.82879 11.775 3.75V1.95C11.775 1.79087 11.8382 1.63826 11.9507 1.52574C12.0632 1.41321 12.2158 1.35 12.375 1.35C12.5341 1.35 12.6867 1.41321 12.7992 1.52574C12.9118 1.63826 12.975 1.79087 12.975 1.95V3.75C12.975 3.82879 12.9595 3.90682 12.9293 3.97961C12.8992 4.05241 12.855 4.11855 12.7992 4.17426C12.7435 4.22998 12.6774 4.27418 12.6046 4.30433C12.5318 4.33448 12.4538 4.35 12.375 4.35ZM5.62498 16.65C5.46585 16.65 5.31323 16.5868 5.20071 16.4743C5.08819 16.3617 5.02498 16.2091 5.02498 16.05V14.25C5.02498 14.0909 5.08819 13.9383 5.20071 13.8257C5.31323 13.7132 5.46585 13.65 5.62498 13.65C5.78411 13.65 5.93672 13.7132 6.04924 13.8257C6.16176 13.9383 6.22498 14.0909 6.22498 14.25V16.05C6.22498 16.2091 6.16176 16.3617 6.04924 16.4743C5.93672 16.5868 5.78411 16.65 5.62498 16.65ZM8.99998 16.65C8.84085 16.65 8.68823 16.5868 8.57571 16.4743C8.46319 16.3617 8.39998 16.2091 8.39998 16.05V14.25C8.39998 14.0909 8.46319 13.9383 8.57571 13.8257C8.68823 13.7132 8.84085 13.65 8.99998 13.65C9.15911 13.65 9.31172 13.7132 9.42424 13.8257C9.53676 13.9383 9.59998 14.0909 9.59998 14.25V16.05C9.59998 16.2091 9.53676 16.3617 9.42424 16.4743C9.31172 16.5868 9.15911 16.65 8.99998 16.65ZM12.375 16.65C12.2158 16.65 12.0632 16.5868 11.9507 16.4743C11.8382 16.3617 11.775 16.2091 11.775 16.05V14.25C11.775 14.0909 11.8382 13.9383 11.9507 13.8257C12.0632 13.7132 12.2158 13.65 12.375 13.65C12.5341 13.65 12.6867 13.7132 12.7992 13.8257C12.9118 13.9383 12.975 14.0909 12.975 14.25V16.05C12.975 16.2091 12.9118 16.3617 12.7992 16.4743C12.6867 16.5868 12.5341 16.65 12.375 16.65ZM3.74998 12.9765H1.94998C1.79085 12.9765 1.63823 12.9133 1.52571 12.8008C1.41319 12.6882 1.34998 12.5356 1.34998 12.3765C1.34998 12.2174 1.41319 12.0648 1.52571 11.9522C1.63823 11.8397 1.79085 11.7765 1.94998 11.7765H3.74998C3.90911 11.7765 4.06172 11.8397 4.17424 11.9522C4.28676 12.0648 4.34998 12.2174 4.34998 12.3765C4.34998 12.5356 4.28676 12.6882 4.17424 12.8008C4.06172 12.9133 3.90911 12.9765 3.74998 12.9765ZM3.74998 9.6H1.94998C1.87118 9.6 1.79316 9.58448 1.72037 9.55433C1.64757 9.52418 1.58143 9.47998 1.52571 9.42426C1.47 9.36855 1.4258 9.30241 1.39565 9.22961C1.3655 9.15682 1.34998 9.07879 1.34998 9C1.34998 8.92121 1.3655 8.84319 1.39565 8.77039C1.4258 8.6976 1.47 8.63145 1.52571 8.57574C1.58143 8.52002 1.64757 8.47583 1.72037 8.44567C1.79316 8.41552 1.87118 8.4 1.94998 8.4H3.74998C3.90911 8.4 4.06172 8.46321 4.17424 8.57574C4.28676 8.68826 4.34998 8.84087 4.34998 9C4.34998 9.15913 4.28676 9.31174 4.17424 9.42426C4.06172 9.53679 3.90911 9.6 3.74998 9.6ZM3.74998 6.2265H1.94998C1.79085 6.2265 1.63823 6.16329 1.52571 6.05077C1.41319 5.93824 1.34998 5.78563 1.34998 5.6265C1.34998 5.46737 1.41319 5.31476 1.52571 5.20224C1.63823 5.08971 1.79085 5.0265 1.94998 5.0265H3.74998C3.90911 5.0265 4.06172 5.08971 4.17424 5.20224C4.28676 5.31476 4.34998 5.46737 4.34998 5.6265C4.34998 5.78563 4.28676 5.93824 4.17424 6.05077C4.06172 6.16329 3.90911 6.2265 3.74998 6.2265ZM16.05 12.9765H14.25C14.0908 12.9765 13.9382 12.9133 13.8257 12.8008C13.7132 12.6882 13.65 12.5356 13.65 12.3765C13.65 12.2174 13.7132 12.0648 13.8257 11.9522C13.9382 11.8397 14.0908 11.7765 14.25 11.7765H16.05C16.2091 11.7765 16.3617 11.8397 16.4742 11.9522C16.5868 12.0648 16.65 12.2174 16.65 12.3765C16.65 12.5356 16.5868 12.6882 16.4742 12.8008C16.3617 12.9133 16.2091 12.9765 16.05 12.9765ZM16.05 9.6H14.25C14.1712 9.6 14.0932 9.58448 14.0204 9.55433C13.9476 9.52418 13.8814 9.47998 13.8257 9.42426C13.77 9.36855 13.7258 9.30241 13.6956 9.22961C13.6655 9.15682 13.65 9.07879 13.65 9C13.65 8.92121 13.6655 8.84319 13.6956 8.77039C13.7258 8.6976 13.77 8.63145 13.8257 8.57574C13.8814 8.52002 13.9476 8.47583 14.0204 8.44567C14.0932 8.41552 14.1712 8.4 14.25 8.4H16.05C16.2091 8.4 16.3617 8.46321 16.4742 8.57574C16.5868 8.68826 16.65 8.84087 16.65 9C16.65 9.15913 16.5868 9.31174 16.4742 9.42426C16.3617 9.53679 16.2091 9.6 16.05 9.6ZM16.05 6.2265H14.25C14.0908 6.2265 13.9382 6.16329 13.8257 6.05077C13.7132 5.93824 13.65 5.78563 13.65 5.6265C13.65 5.46737 13.7132 5.31476 13.8257 5.20224C13.9382 5.08971 14.0908 5.0265 14.25 5.0265H16.05C16.2091 5.0265 16.3617 5.08971 16.4742 5.20224C16.5868 5.31476 16.65 5.46737 16.65 5.6265C16.65 5.78563 16.5868 5.93824 16.4742 6.05077C16.3617 6.16329 16.2091 6.2265 16.05 6.2265Z" fill="currentColor"/>
</svg>
