<svg width="19" height="18" viewBox="0 0 19 18" fill="none"
  xmlns="http://www.w3.org/2000/svg">
  <path d="M9.5 1.5C13.6423 1.5 17 4.85775 17 9C17 13.1423 13.6423 16.5 9.5 16.5C5.35775 16.5 2 13.1423 2 9C2 4.85775 5.35775 1.5 9.5 1.5ZM9.5 3C7.9087 3 6.38258 3.63214 5.25736 4.75736C4.13214 5.88258 3.5 7.4087 3.5 9C3.5 10.5913 4.13214 12.1174 5.25736 13.2426C6.38258 14.3679 7.9087 15 9.5 15C11.0913 15 12.6174 14.3679 13.7426 13.2426C14.8679 12.1174 15.5 10.5913 15.5 9C15.5 7.4087 14.8679 5.88258 13.7426 4.75736C12.6174 3.63214 11.0913 3 9.5 3ZM8.75 4.866C8.9337 4.86602 9.111 4.93347 9.24828 5.05554C9.38555 5.17761 9.47326 5.34581 9.49475 5.52825L9.5 5.616V9H12.8975C13.0812 9.00002 13.2585 9.06747 13.3958 9.18954C13.5331 9.31161 13.6208 9.47981 13.6423 9.66225L13.6468 9.75C13.6467 9.9337 13.5793 10.111 13.4572 10.2483C13.3351 10.3856 13.1669 10.4733 12.9845 10.4948L12.8975 10.5H8.75C8.5663 10.5 8.389 10.4325 8.25172 10.3105C8.11444 10.1884 8.02674 10.0202 8.00525 9.83775L8 9.75V5.616C8 5.41709 8.07902 5.22632 8.21967 5.08567C8.36032 4.94502 8.55109 4.866 8.75 4.866Z" fill="currentColor"/>
</svg>
